<svg xmlns="http://www.w3.org/2000/svg" width="631" height="200" fill="none"><path fill="#fff" d="M624 176.667c-13.665.333-27.33.383-40.994.268-1.663-.013-3.838-.398-4.896-1.475-12.222-12.428-24.274-25.022-36.849-38.068v39.259h-38.97V5.238h38.579v102.059l1.224.647c7.267-7.447 15.095-14.436 21.654-22.462 7.472-9.14 16.047-13.069 27.934-11.684 8.85 1.03 17.916.203 27.715 1.3l-47.942 47.95c6.859 6.83 13.486 13.342 20.015 19.95 10.733 10.862 21.402 21.786 32.314 32.343.216.103.216.548.216 1.326ZM346.717 27.67c-14.493 20.56-28.677 40.89-43.171 60.997-1.99 2.76-1.33 4.468.177 6.502 19.248 25.98 38.538 51.93 57.791 77.907.751 1.012 1.238 2.22 2.158 3.904-14.928 0-29.492.057-44.053-.107-1.178-.014-2.684-1.305-3.457-2.409-14.116-20.164-28.136-40.396-42.202-60.596-1.285-1.845-2.74-3.571-4.682-6.084v68.815h-38.927V12.315h38.602v65.042c8.189-11.783 15.584-22.441 22.997-33.087 6.988-10.035 13.971-20.076 21.034-30.058.664-.938 1.886-2.095 2.859-2.105 13.601-.138 27.204-.094 41.631-.094-3.825 5.57-7.186 10.464-10.757 15.657ZM378 127V5.316h38.739v171.28H378V127Zm102-42.964v92.656h-37.744V74.395H480v9.641Zm-12.932-73.481c10.843 2.965 16.343 11.97 16.799 21.494.468 9.79-7.434 18.309-17.281 21.062-11.423 3.195-24.4-4.782-26.314-15.233-2.514-13.726 2.855-23.593 16.587-27.618 3.032-.889 6.577-.032 10.209.295ZM0 66.4C0 11.72 11.72 0 66.4 0h67.2C188.28 0 200 11.72 200 66.4v67.2c0 54.68-11.72 66.4-66.4 66.4H66.4C11.72 200 0 188.28 0 133.6V66.4Z"/><path fill="#000" d="M16.825 93.025c2.6 0 4.65-.675 6.15-2.025 1.55-1.35 2.325-3.4 2.325-6.15V52.9c0-3.35.6-6.55 1.8-9.6 1.25-3.05 3.275-5.55 6.075-7.5 2.8-2 6.525-3 11.175-3H55.9v16.575h-5.775c-2.35 0-4.125.6-5.325 1.8-1.15 1.15-1.725 2.975-1.725 5.475v30.525c0 3.4-.675 6.125-2.025 8.175-1.3 2.05-3.625 3.625-6.975 4.725 3.45 1.1 5.8 2.725 7.05 4.875 1.3 2.1 1.95 4.725 1.95 7.875v30.525c0 2.3.525 4.075 1.575 5.325 1.1 1.3 2.925 1.95 5.475 1.95H55.9V167.2H44.35c-4.65 0-8.375-1-11.175-3-2.8-1.95-4.825-4.475-6.075-7.575-1.2-3.05-1.8-6.225-1.8-9.525v-31.95c0-2.75-.775-4.8-2.325-6.15-1.5-1.4-3.55-2.1-6.15-2.1V93.025Z"/><g filter="url(#a)"><path fill="#000" d="M78.03 113.57c0-16.319-.03-32.14.05-47.96.008-1.538.707-3.073 1.085-4.61 1.526.744 3.34 1.176 4.534 2.28 14.67 13.568 29.263 27.22 43.818 40.911 1.004.944 1.545 2.38 2.301 3.587-1.416.609-2.788 1.585-4.256 1.762-5.567.672-11.166 1.085-17.603 1.672 3.712 8.149 7.129 15.636 10.535 23.128 2.409 5.3 2.27 5.04-5.159 8.788-4.251 2.145-5.771.677-7.29-3.117-3.08-7.698-6.523-15.251-10.097-23.511-4.46 4.142-8.462 7.992-12.634 11.649-1.111.974-2.74 1.358-4.132 2.013-.383-1.368-1.046-2.725-1.098-4.105-.15-3.991-.053-7.991-.054-12.487Z"/></g><path fill="#000" d="M144.025 167.2v-16.575h5.7c2.55 0 4.35-.65 5.4-1.95 1.1-1.25 1.65-3.025 1.65-5.325v-30.525c0-3.15.65-5.775 1.95-7.875 1.3-2.15 3.675-3.775 7.125-4.875-3.35-1.1-5.7-2.675-7.05-4.725-1.35-2.05-2.025-4.775-2.025-8.175V56.65c0-2.5-.575-4.325-1.725-5.475-1.15-1.2-2.925-1.8-5.325-1.8h-5.7V32.8H155.5c4.75 0 8.5 1 11.25 3 2.75 1.95 4.725 4.45 5.925 7.5a25.072 25.072 0 0 1 1.875 9.6v31.95c0 2.75.75 4.8 2.25 6.15 1.55 1.35 3.625 2.025 6.225 2.025V106.9c-2.6 0-4.675.7-6.225 2.1-1.5 1.35-2.25 3.4-2.25 6.15v31.95c0 3.3-.625 6.475-1.875 9.525-1.2 3.1-3.175 5.625-5.925 7.575-2.75 2-6.5 3-11.25 3h-11.475Z"/><defs><filter id="a" width="59.818" height="91.12" x="74" y="61" color-interpolation-filters="sRGB" filterUnits="userSpaceOnUse"><feFlood flood-opacity="0" result="BackgroundImageFix"/><feColorMatrix in="SourceAlpha" result="hardAlpha" values="0 0 0 0 0 0 0 0 0 0 0 0 0 0 0 0 0 0 127 0"/><feOffset dy="4"/><feGaussianBlur stdDeviation="2"/><feComposite in2="hardAlpha" operator="out"/><feColorMatrix values="0 0 0 0 0 0 0 0 0 0 0 0 0 0 0 0 0 0 0.25 0"/><feBlend in2="BackgroundImageFix" result="effect1_dropShadow_406_220"/><feBlend in="SourceGraphic" in2="effect1_dropShadow_406_220" result="shape"/></filter></defs></svg>