<svg xmlns="http://www.w3.org/2000/svg" width="631" height="200" fill="none"><g clip-path="url(#a)"><path fill="#7548E1" d="M163.531 1c1.451.67 2.352 1.715 3.428 1.95 11.373 2.475 21.787 6.756 27.109 17.88 2.829 5.913 5.536 12.583 5.677 18.969.842 38.078 1.365 76.178.927 114.259-.104 9.122-3.217 18.638-6.815 27.186-4.7 11.165-15.337 15.334-26.559 17.78-1.04.226-1.983.9-2.635 1.671-41.684.305-83.705.305-125.876-.027-1.146-.777-2.1-1.434-3.142-1.633-11.556-2.211-21.927-6.469-27.564-17.633-2.295-4.545-3.374-9.696-5.14-14.522-.28-.762-1.276-1.26-1.941-1.88 0-42.021 0-84.042.332-126.213.777-1.145 1.434-2.1 1.633-3.142C5.175 24.09 9.43 13.717 20.598 8.081c4.545-2.293 9.696-3.373 14.522-5.14C35.882 2.66 36.38 1.664 37 1h126.531ZM44.899 148.234c-.274-1.788-.766-3.574-.785-5.364-.086-7.998-.121-15.999-.013-23.996.096-7.07.315-14.102-8.362-17.977 7.048-2.915 8.438-7.94 8.362-13.858-.105-8.164-.025-16.33-.025-24.496 0-11.463 0-11.46 11.547-12.43.29-.025.56-.296 1.03-.559V33.83c-3.054 0-5.838-.008-8.621.001-15.236.052-21.753 6.576-21.86 21.985-.06 8.832-.276 17.675.077 26.493.256 6.374-.966 11.242-8.32 12.146 0 3.73-.01 7.056.006 10.382.004.821.09 1.642.133 2.387 7.56 2.821 8.079 3.581 8.092 11.68.004 2.832-.057 5.667.011 8.498.21 8.648 0 17.341.853 25.927.713 7.18 4.969 12.619 12.314 14.005 5.585 1.053 11.429.733 17.298 1.031v-15.343c-4.152-1.473-7.763-2.754-11.737-4.788Zm100.892 19.687c2.826.082 5.653.247 8.479.232 14.754-.074 21.132-6.508 21.225-21.448.057-9.166-.013-18.332.021-27.497.031-8.187.755-9.201 8.288-12.017v-12.82c-6.908-1.838-8.084-3.275-8.282-10.001-.044-1.499-.013-3-.014-4.5-.006-8.832.141-17.668-.058-26.496-.233-10.348-5.259-17.686-13.663-18.96-5.314-.805-10.85-.15-16.403-.15v15.778c1.036.105 1.693.21 2.353.234 8.87.33 10.086 1.56 10.093 10.288.008 8 .075 16-.02 23.997-.08 6.664-.208 13.262 8.597 16.33-7.465 3.434-8.772 8.755-8.62 14.998.19 7.828.045 15.664.045 23.496-.001 11.317-.348 11.688-11.565 12.485-.287.02-.558.273-1.103.555 0 4.838 0 9.806.627 15.496Zm-66.794-53.427c0 3.997-.096 7.997.054 11.988.052 1.38.715 2.737 1.098 4.105 1.391-.655 3.02-1.039 4.132-2.013 4.172-3.657 8.175-7.507 12.633-11.649 3.575 8.26 7.018 15.813 10.098 23.511 1.518 3.794 3.039 5.262 7.29 3.117 7.429-3.748 7.568-3.488 5.158-8.788-3.406-7.492-6.822-14.979-10.534-23.128 6.437-.587 12.035-1 17.603-1.672 1.468-.177 2.84-1.153 4.256-1.762-.756-1.207-1.298-2.643-2.301-3.587-14.555-13.691-29.149-27.343-43.818-40.911-1.194-1.104-3.008-1.536-4.534-2.28-.379 1.537-1.077 3.072-1.085 4.61-.08 15.82-.05 31.641-.05 48.459Z"/><path fill="#7447E1" d="M632 180.667c-13.665.333-27.33.383-40.994.268-1.663-.013-3.838-.398-4.896-1.475-12.222-12.428-24.274-25.022-36.849-38.068v39.259h-38.97V9.238h38.579v102.059l1.224.647c7.267-7.447 15.095-14.436 21.654-22.462 7.472-9.14 16.047-13.069 27.934-11.684 8.85 1.03 17.916.203 27.715 1.3l-47.942 47.95c6.859 6.83 13.486 13.342 20.015 19.95 10.733 10.862 21.402 21.786 32.314 32.343.216.103.216.548.216 1.326ZM354.717 31.67c-14.493 20.56-28.677 40.89-43.171 60.997-1.99 2.76-1.33 4.468.177 6.502 19.248 25.98 38.538 51.93 57.791 77.907.751 1.012 1.238 2.22 2.158 3.904-14.928 0-29.492.057-44.053-.107-1.178-.014-2.684-1.305-3.457-2.409-14.116-20.164-28.136-40.396-42.202-60.596-1.285-1.845-2.74-3.571-4.682-6.084v68.815h-38.927V16.315h38.602v65.042c8.189-11.783 15.584-22.441 22.997-33.087 6.988-10.035 13.971-20.076 21.034-30.058.664-.938 1.886-2.095 2.859-2.105 13.601-.138 27.204-.094 41.631-.094-3.825 5.57-7.186 10.464-10.757 15.657ZM386 131V9.316h38.739v171.28H386V131ZM488 88.036v92.656h-37.744V78.395H488v9.641ZM475.068 14.555c10.843 2.965 16.343 11.97 16.799 21.494.468 9.79-7.434 18.309-17.281 21.062-11.423 3.195-24.4-4.782-26.314-15.233-2.514-13.726 2.855-23.593 16.587-27.618 3.032-.889 6.577-.032 10.209.295Z"/><path fill="#FDFDFF" d="M45.08 148.611c3.793 1.657 7.404 2.938 11.556 4.411v15.343c-5.87-.298-11.713.022-17.298-1.031-7.345-1.386-11.601-6.825-12.314-14.005-.852-8.586-.643-17.279-.853-25.927-.068-2.831-.007-5.666-.011-8.498-.013-8.099-.532-8.859-8.092-11.68-.044-.745-.129-1.566-.133-2.387-.016-3.326-.006-6.651-.006-10.382 7.354-.904 8.576-5.772 8.32-12.146-.353-8.818-.138-17.66-.077-26.492.107-15.41 6.624-21.934 21.86-21.986 2.784-.01 5.568-.001 8.622-.001v15.724c-.471.263-.74.534-1.031.559-11.546.97-11.546.967-11.547 12.43 0 8.166-.08 16.332.025 24.496.076 5.919-1.314 10.943-8.362 13.858 8.677 3.875 8.458 10.907 8.362 17.977-.108 7.997-.073 15.998.013 23.996.02 1.79.511 3.576.966 5.741Z"/><path fill="#FEFEFF" d="M145.477 167.56c-.313-5.329-.313-10.297-.313-15.135.545-.282.816-.535 1.103-.555 11.217-.797 11.564-1.168 11.565-12.485 0-7.832.144-15.668-.045-23.496-.152-6.243 1.155-11.564 8.619-14.998-8.805-3.068-8.676-9.666-8.597-16.33.096-7.998.029-15.998.021-23.997-.008-8.728-1.223-9.958-10.093-10.288-.66-.025-1.317-.129-2.353-.234V34.264c5.553 0 11.089-.655 16.403.15 8.404 1.274 13.43 8.612 13.663 18.96.199 8.828.052 17.664.058 26.497.001 1.5-.03 3 .014 4.499.197 6.726 1.374 8.163 8.282 10.001v12.819c-7.533 2.817-8.257 3.831-8.288 12.018-.034 9.165.036 18.331-.021 27.497-.093 14.94-6.471 21.374-21.225 21.448a59.433 59.433 0 0 1-8.793-.593Z"/><path fill="#FEFDFF" d="M78.997 113.995c0-16.319-.03-32.14.05-47.96.008-1.538.707-3.073 1.085-4.61 1.526.744 3.34 1.176 4.534 2.28 14.67 13.568 29.263 27.22 43.818 40.911 1.004.944 1.545 2.38 2.301 3.587-1.416.609-2.788 1.585-4.256 1.762-5.567.672-11.166 1.085-17.603 1.672 3.712 8.149 7.129 15.636 10.535 23.128 2.409 5.3 2.27 5.04-5.159 8.788-4.251 2.145-5.771.677-7.29-3.117-3.08-7.698-6.523-15.251-10.097-23.511-4.459 4.142-8.462 7.992-12.634 11.649-1.111.974-2.74 1.358-4.132 2.013-.383-1.368-1.046-2.725-1.098-4.105-.15-3.991-.053-7.991-.054-12.487Z"/></g><defs><clipPath id="a"><path fill="#fff" d="M0 0h631v200H0z"/></clipPath></defs></svg>